<?xml version="1.0" standalone="no"?>
<!DOCTYPE svg PUBLIC "-//W3C//DTD SVG 20010904//EN"
 "http://www.w3.org/TR/2001/REC-SVG-20010904/DTD/svg10.dtd">
<svg version="1.0" xmlns="http://www.w3.org/2000/svg"
 width="300.000000pt" height="300.000000pt" viewBox="0 0 300.000000 300.000000"
 preserveAspectRatio="xMidYMid meet">

<g transform="translate(0.000000,300.000000) scale(0.100000,-0.100000)"
fill="#000000" stroke="none">
<path d="M670 2425 c-30 -7 -72 -14 -92 -14 -20 -1 -39 -5 -42 -10 -4 -5 -24
-12 -45 -16 -46 -8 -86 -27 -156 -75 -65 -45 -69 -48 -113 -94 -20 -21 -44
-46 -53 -55 -16 -15 -56 -90 -96 -176 -26 -57 -26 -404 0 -450 9 -16 17 -39
17 -50 0 -11 7 -29 15 -39 8 -11 15 -28 15 -37 0 -10 7 -30 14 -46 8 -15 18
-35 21 -43 3 -8 14 -28 25 -45 11 -16 23 -37 27 -45 26 -56 151 -216 215 -275
97 -90 276 -224 300 -225 4 0 44 -18 90 -39 156 -73 285 -95 518 -88 158 6
193 11 385 57 93 22 250 73 315 102 134 60 158 71 195 90 95 48 148 78 180
102 18 14 38 26 43 26 8 0 60 38 245 179 49 38 134 139 185 221 l47 75 0 113
c0 72 -4 115 -11 120 -6 4 -18 21 -27 37 -22 44 -81 108 -130 141 -23 16 -44
31 -47 34 -12 13 -221 111 -275 129 -92 31 -143 50 -163 60 -22 11 -108 37
-149 46 -18 4 -33 11 -33 16 0 5 -12 9 -26 9 -14 0 -35 6 -47 12 -12 7 -42 18
-67 25 -66 17 -148 40 -210 58 -30 9 -73 21 -95 26 -22 5 -60 14 -85 21 -25 6
-63 14 -85 18 -22 4 -53 13 -70 18 -42 15 -128 32 -205 41 -36 4 -87 13 -115
19 -52 12 -224 32 -310 37 -27 2 -75 -3 -105 -10z m1619 -619 c18 -19 22 -35
22 -88 0 -70 -8 -118 -21 -118 -4 0 -11 -12 -14 -26 -4 -14 -18 -43 -31 -65
-31 -48 -31 -50 1 -88 23 -28 31 -31 82 -31 32 0 77 7 102 16 41 14 45 14 57
-2 28 -38 4 -84 -43 -84 -14 0 -45 -5 -70 -11 -72 -18 -159 4 -204 53 -20 21
-45 38 -57 38 -35 0 -37 33 -4 68 28 31 29 35 33 154 4 125 14 160 57 196 24
19 65 14 90 -12z m-1159 -98 c109 -33 171 -178 120 -277 -42 -82 -104 -121
-195 -121 -121 0 -215 89 -217 206 -1 49 42 135 81 161 69 47 131 56 211 31z
m788 6 c112 -33 177 -141 150 -249 -17 -66 -88 -139 -145 -148 -136 -23 -209
11 -259 120 -29 64 -30 91 -3 150 30 66 68 102 130 123 68 23 60 23 127 4z
m-1356 -44 c9 -19 20 -55 24 -80 4 -25 13 -54 20 -65 8 -11 14 -29 14 -40 1
-19 32 -65 44 -65 3 0 6 6 6 13 0 6 7 25 15 41 16 30 28 73 47 161 6 28 18 56
26 63 21 16 57 15 72 -3 14 -17 0 -72 -56 -217 -19 -49 -34 -94 -34 -100 -1
-27 -47 -58 -87 -58 -56 0 -76 28 -118 158 -14 42 -29 86 -35 97 -22 47 -31
106 -19 121 21 26 62 13 81 -26z m1053 23 c9 -9 21 -27 26 -41 18 -46 -41
-113 -146 -163 -71 -35 -125 -72 -125 -86 0 -10 30 -13 118 -13 64 0 123 -4
130 -9 8 -4 12 -19 10 -32 -3 -24 -3 -24 -154 -27 -145 -2 -151 -2 -171 20
-12 13 -24 34 -28 48 -9 36 47 97 121 135 33 17 65 36 72 43 7 6 19 12 25 12
18 1 61 39 53 48 -4 4 -60 9 -124 12 -102 4 -117 7 -120 23 -9 44 0 47 152 47
121 0 147 -3 161 -17z"/>
<path d="M1005 1631 c-11 -5 -32 -21 -47 -36 -24 -24 -28 -36 -28 -83 0 -50 3
-57 37 -88 30 -28 45 -34 81 -34 84 0 140 62 129 143 -8 56 -49 95 -107 102
-25 3 -54 1 -65 -4z"/>
<path d="M1815 1633 c-30 -8 -56 -34 -72 -72 -35 -82 25 -171 117 -171 37 0
52 6 81 33 58 52 61 118 9 176 -20 23 -37 32 -71 35 -24 3 -53 2 -64 -1z"/>
</g>
</svg>
